<svg width="64" height="64" viewBox="0 0 64 64" fill="none" xmlns="http://www.w3.org/2000/svg" role="img" aria-label="Fluent Chat">
    <rect width="64" height="64" rx="15" fill="#0A0A0A"/>
    <rect x="6" y="6" width="52" height="52" rx="13" fill="url(#fluent-chat-gradient)"/>
    <path d="M18 18.5C18 15.4624 20.4624 13 23.5 13H43.5C46.5376 13 49 15.4624 49 18.5V34.5C49 37.5376 46.5376 40 43.5 40H35.8918L25.75 48V40H23.5C20.4624 40 18 37.5376 18 34.5V18.5Z" fill="#0A0A0A"/>
    <path d="M26 24H41" stroke="white" stroke-width="3.75" stroke-linecap="round"/>
    <path d="M26 31H36" stroke="white" stroke-width="3.75" stroke-linecap="round"/>
    <circle cx="46" cy="17" r="5" fill="white"/>
    <circle cx="46" cy="17" r="2" fill="#10B981"/>
    <defs>
        <linearGradient id="fluent-chat-gradient" x1="10" y1="9" x2="56" y2="57" gradientUnits="userSpaceOnUse">
            <stop stop-color="#2DD4BF"/>
            <stop offset="0.58" stop-color="#34D399"/>
            <stop offset="1" stop-color="#FACC15"/>
        </linearGradient>
    </defs>
</svg>
